<svg width="32" height="32" viewBox="0 0 32 32" fill="none" xmlns="http://www.w3.org/2000/svg">
<rect width="32" height="32" rx="8" fill="black"/>
<path d="M23.1793 17.8683C22.5037 17.8683 21.819 18.0159 21.197 18.2979C20.9308 18.4187 20.6489 18.4768 20.3692 18.4768C19.8344 18.4768 19.3087 18.2643 18.9216 17.8638C18.3309 17.253 18.1877 16.3379 18.5614 15.575C18.7381 15.2147 18.8903 14.8366 19.0089 14.4495C19.6174 12.4918 19.4272 10.4133 18.4741 8.59654C17.1429 6.06157 14.5363 4.48645 11.6724 4.48645C10.4396 4.48645 9.20685 4.79074 8.10829 5.36798C4.35842 7.33912 2.91083 11.9884 4.87973 15.7383C6.21098 18.2732 8.81754 19.8461 11.6836 19.8461C12.9164 19.8461 14.1492 19.5418 15.2478 18.9646C15.3955 18.8863 15.5431 18.8035 15.6841 18.7162C16.0085 18.5194 16.371 18.4209 16.7312 18.4209C17.1809 18.4209 17.6306 18.5708 17.9975 18.8684C18.6598 19.4031 18.9126 20.2958 18.633 21.0991C18.1855 22.3789 18.2862 23.7392 18.9126 24.934C19.7494 26.5247 21.385 27.5137 23.1838 27.5137C23.958 27.5137 24.7321 27.3212 25.4212 26.9588C27.7749 25.7215 28.6833 22.8017 27.4483 20.448C26.6115 18.8572 24.976 17.8683 23.1749 17.8683H23.1793ZM12.2184 16.0784C11.5762 16.4162 10.8871 16.5863 10.1667 16.5863C8.51773 16.5863 7.01644 15.6801 6.25125 14.2213C5.11913 12.0645 5.95144 9.38633 8.10829 8.25421C8.75042 7.91637 9.43953 7.74633 10.16 7.74633C11.8089 7.74633 13.3102 8.65247 14.0776 10.1112C15.2098 12.2681 14.3775 14.9462 12.2206 16.0784H12.2184Z" fill="white"/>
<path d="M23.1793 13.9148C24.1548 13.9148 24.9446 13.125 24.9446 12.1495C24.9446 11.174 24.1548 10.3842 23.1793 10.3842C22.2038 10.3842 21.414 11.174 21.414 12.1495C21.414 13.125 22.2038 13.9148 23.1793 13.9148Z" fill="#1A489C"/>
</svg>
