<svg width="426" height="69" viewBox="0 0 426 69" fill="none" xmlns="http://www.w3.org/2000/svg">
<path d="M40.0099 27.71L28.4199 58.3496H38.7699L50.3599 27.71H40.0099Z" fill="black"/>
<path d="M53.0998 27.71L41.5098 58.3496H58.0398L69.6298 27.71H53.0998Z" fill="black"/>
<path d="M29.7804 27.71L18.1904 58.3496H25.6804L37.2704 27.71H29.7804Z" fill="black"/>
<path d="M57.2 12.3999C57.2 8.7899 58.63 5.51986 60.94 3.10986H20.89L0 58.3496H13.1L26.64 22.5498H61.83C59 20.0798 57.2 16.4499 57.2 12.3999Z" fill="black"/>
<path d="M83.0598 12.3999C83.0598 19.2499 77.5098 24.7998 70.6598 24.7998C63.8098 24.7998 58.2598 19.2499 58.2598 12.3999C58.2598 5.5499 63.8098 0 70.6598 0C77.4998 0 83.0598 5.5499 83.0598 12.3999Z" fill="#D61518"/>
<path d="M0 68.1997V61.1899H0.930008V68.1997H0Z" fill="#221714"/>
<path d="M3.04004 68.1997V61.1899H3.99004L7.67003 66.6997V61.1899H8.56003V68.1997H7.61003L3.93004 62.6899V68.1997H3.04004Z" fill="#221714"/>
<path d="M12.3999 68.1997V62.0098H10.0898V61.1797H15.6499V62.0098H13.3298V68.1997H12.3999Z" fill="#221714"/>
<path d="M17.1104 68.1997V61.1899H22.1804V62.02H18.0404V64.1699H21.9203V64.9897H18.0404V67.3799H22.3504V68.21H17.1104V68.1997Z" fill="#221714"/>
<path d="M27.3999 65.4399V64.6196L30.3699 64.6099V67.21C29.9099 67.57 29.4399 67.8498 28.9599 68.0298C28.4799 68.2098 27.9799 68.3096 27.4699 68.3096C26.7799 68.3096 26.1599 68.1596 25.5899 67.8696C25.0299 67.5696 24.5999 67.1498 24.3099 66.5898C24.0199 66.0298 23.8799 65.4097 23.8799 64.7197C23.8799 64.0397 24.0199 63.3996 24.3099 62.8096C24.5999 62.2196 25.0099 61.7797 25.5399 61.4897C26.0799 61.1997 26.6899 61.0596 27.3899 61.0596C27.8999 61.0596 28.3599 61.1396 28.7699 61.3096C29.1799 61.4696 29.4999 61.7 29.7299 62C29.9599 62.29 30.1399 62.6799 30.2599 63.1499L29.4199 63.3799C29.3199 63.0199 29.1799 62.7396 29.0299 62.5396C28.8699 62.3396 28.6499 62.1698 28.3599 62.0498C28.0699 61.9298 27.7499 61.8696 27.3899 61.8696C26.9699 61.8696 26.5999 61.9296 26.2899 62.0596C25.9799 62.1896 25.7299 62.3598 25.5399 62.5698C25.3499 62.7798 25.1999 63.0098 25.0999 63.2598C24.9199 63.6898 24.8299 64.1699 24.8299 64.6699C24.8299 65.2999 24.9399 65.8197 25.1499 66.2397C25.3699 66.6597 25.6799 66.9697 26.0899 67.1797C26.4999 67.3897 26.9399 67.4897 27.3999 67.4897C27.7999 67.4897 28.1899 67.4098 28.5799 67.2598C28.9599 67.1098 29.2499 66.9398 29.4499 66.7598V65.4497H27.3999V65.4399Z" fill="#221714"/>
<path d="M32.2402 68.1997V61.1899H35.3502C35.9802 61.1899 36.4502 61.2499 36.7802 61.3799C37.1102 61.5099 37.3702 61.7298 37.5602 62.0498C37.7502 62.3698 37.8502 62.7199 37.8502 63.1099C37.8502 63.6099 37.6902 64.0296 37.3702 64.3696C37.0502 64.7096 36.5502 64.93 35.8802 65.02C36.1302 65.14 36.3102 65.2496 36.4402 65.3696C36.7102 65.6196 36.9702 65.9298 37.2102 66.2998L38.4302 68.21H37.2602L36.3302 66.75C36.0602 66.33 35.8402 66.0098 35.6602 65.7798C35.4802 65.5598 35.3302 65.3996 35.1902 65.3096C35.0502 65.2196 34.9102 65.1596 34.7702 65.1196C34.6702 65.0996 34.4902 65.0898 34.2502 65.0898H33.1702V68.1997H32.2402ZM33.1702 64.2798H35.1602C35.5802 64.2798 35.9202 64.2399 36.1502 64.1499C36.3902 64.0599 36.5702 63.92 36.7002 63.73C36.8202 63.54 36.8902 63.3296 36.8902 63.0996C36.8902 62.7696 36.7702 62.4998 36.5302 62.2798C36.2902 62.0698 35.9102 61.96 35.3902 61.96H33.1702V64.2798Z" fill="#221714"/>
<path d="M39.0195 68.1997L41.7095 61.1899H42.7095L45.5795 68.1997H44.5195L43.6995 66.0796H40.7695L39.9995 68.1997H39.0195ZM41.0495 65.3198H43.4295L42.6995 63.3799C42.4795 62.7899 42.3095 62.3097 42.1995 61.9297C42.1095 62.3797 41.9795 62.83 41.8195 63.27L41.0495 65.3198Z" fill="#221714"/>
<path d="M47.8803 68.1997V62.0098H45.5703V61.1797H51.1303V62.0098H48.8103V68.1997H47.8803Z" fill="#221714"/>
<path d="M52.5898 68.1997V61.1899H57.6599V62.02H53.5199V64.1699H57.3999V64.9897H53.5199V67.3799H57.8298V68.21H52.5898V68.1997Z" fill="#221714"/>
<path d="M59.5898 68.1997V61.1899H62.0099C62.5599 61.1899 62.9699 61.2196 63.2599 61.2896C63.6599 61.3796 64.0099 61.5496 64.2899 61.7896C64.6599 62.0996 64.9398 62.4997 65.1198 62.9897C65.2998 63.4797 65.3998 64.0297 65.3998 64.6597C65.3998 65.1897 65.3398 65.6596 65.2098 66.0796C65.0898 66.4896 64.9299 66.8296 64.7299 67.0996C64.5399 67.3696 64.3198 67.5797 64.0898 67.7397C63.8598 67.8897 63.5798 68.0098 63.2498 68.0898C62.9198 68.1698 62.5499 68.21 62.1199 68.21H59.5898V68.1997ZM60.5199 67.3696H62.0199C62.4799 67.3696 62.8498 67.3297 63.1098 67.2397C63.3698 67.1497 63.5798 67.0299 63.7398 66.8799C63.9598 66.6599 64.1298 66.3597 64.2498 65.9897C64.3698 65.6197 64.4298 65.1696 64.4298 64.6396C64.4298 63.9096 64.3099 63.3397 64.0699 62.9497C63.8299 62.5597 63.5398 62.2897 63.1898 62.1597C62.9398 62.0597 62.5399 62.02 61.9899 62.02H60.5199V67.3696Z" fill="#221714"/>
<path d="M88.1473 21.9408H117.16V24.642H88.1473V21.9408ZM93.6498 9.43513H99.986V11.2693H93.6498V9.43513ZM93.5831 15.2044H100.053V17.0052H93.5831V15.2044ZM93.7832 12.3031H99.8859V14.1373H93.7832V12.3031ZM87.7471 35.1467H117.494V38.0147H87.7471V35.1467ZM95.4839 28.0769V29.9777H110.157V28.0769H95.4839ZM91.7489 25.7425H114.092V32.3121H91.7489V25.7425ZM94.6169 32.4122L98.1185 31.5451C98.4742 32.0787 98.8077 32.679 99.1189 33.3459C99.4302 33.9907 99.6525 34.5687 99.7859 35.08L96.1176 36.1139C96.0064 35.5803 95.8063 34.9689 95.5173 34.2797C95.2283 33.5905 94.9281 32.968 94.6169 32.4122ZM107.556 31.4117L111.291 32.3788C110.891 33.1125 110.502 33.8017 110.124 34.4464C109.746 35.0689 109.39 35.6136 109.057 36.0805L105.755 35.1467C106.066 34.6132 106.389 34.0018 106.722 33.3126C107.078 32.6012 107.356 31.9675 107.556 31.4117ZM95.6173 7.76771H97.9517V19.2396H95.6173V7.76771ZM105.088 9.43513H111.424V11.2693H105.088V9.43513ZM105.022 15.2044H111.491V17.0052H105.022V15.2044ZM105.188 12.3031H111.324V14.1373H105.188V12.3031ZM107.089 7.76771H109.457V19.2396H107.089V7.76771ZM100.786 7.26748H104.288V19.473H100.786V7.26748ZM89.4479 8.23459H92.8494V18.1391H112.258V8.23459H115.793V20.8403H89.4479V8.23459ZM130.9 24.3085H151.376V27.4099H130.9V24.3085ZM133.635 30.6447L135.635 28.2436C136.191 28.5549 136.758 28.9217 137.336 29.3441C137.936 29.7665 138.492 30.189 139.004 30.6114C139.537 31.0338 139.971 31.4117 140.304 31.7452L138.17 34.4464C137.859 34.0685 137.447 33.6572 136.936 33.2125C136.425 32.7679 135.88 32.3232 135.302 31.8786C134.724 31.4117 134.168 31.0004 133.635 30.6447ZM144.473 23.0746L146.44 21.3405C146.974 21.674 147.53 22.0631 148.108 22.5077C148.686 22.9523 149.13 23.3636 149.442 23.7416L147.374 25.6425C147.085 25.2645 146.651 24.831 146.073 24.3419C145.518 23.8528 144.984 23.4303 144.473 23.0746ZM133.101 25.9426H136.636C136.525 27.6322 136.302 29.2552 135.969 30.8115C135.658 32.3677 135.124 33.8128 134.368 35.1467C133.612 36.4585 132.545 37.6034 131.167 38.5816C130.922 38.1592 130.578 37.6812 130.133 37.1477C129.711 36.6363 129.299 36.2361 128.899 35.9471C130.033 35.1912 130.889 34.2797 131.467 33.2125C132.045 32.1454 132.445 30.9893 132.667 29.7443C132.89 28.4993 133.034 27.2321 133.101 25.9426ZM138.837 7.33418H142.338C142.272 10.38 142.305 13.2924 142.438 16.0715C142.594 18.8505 142.828 21.4183 143.139 23.7749C143.45 26.1093 143.85 28.1436 144.339 29.8777C144.828 31.5896 145.395 32.9235 146.04 33.8795C146.707 34.8355 147.452 35.3135 148.274 35.3135C148.675 35.3135 148.964 35.1023 149.142 34.6799C149.319 34.2575 149.453 33.3793 149.542 32.0453C149.92 32.4011 150.353 32.7457 150.842 33.0791C151.331 33.3904 151.765 33.6461 152.143 33.8462C151.965 35.1134 151.709 36.0916 151.376 36.7808C151.065 37.47 150.631 37.948 150.075 38.2148C149.542 38.5038 148.841 38.6483 147.974 38.6483C146.529 38.6483 145.273 38.0925 144.206 36.9809C143.161 35.8915 142.283 34.3686 141.571 32.4122C140.882 30.4335 140.338 28.1325 139.937 25.5091C139.559 22.8634 139.281 20.0066 139.104 16.9385C138.926 13.8482 138.837 10.6468 138.837 7.33418ZM146.474 27.3432L149.808 28.6105C148.652 30.9226 147.085 32.9235 145.106 34.6132C143.128 36.3028 140.871 37.6368 138.337 38.615C138.137 38.237 137.814 37.7924 137.37 37.281C136.947 36.7697 136.569 36.3584 136.236 36.0472C138.637 35.2023 140.715 34.0351 142.472 32.5456C144.25 31.056 145.584 29.3219 146.474 27.3432ZM141.805 13.6037L143.306 11.4027C143.995 11.8918 144.706 12.4698 145.44 13.1368C146.196 13.8038 146.752 14.404 147.107 14.9376L145.573 17.4054C145.218 16.8496 144.673 16.216 143.939 15.5045C143.205 14.7709 142.494 14.1373 141.805 13.6037ZM148.041 17.4721L150.275 16.605C150.698 17.4276 151.076 18.3058 151.409 19.2396C151.743 20.1511 151.954 20.9403 152.043 21.6073L149.642 22.6077C149.553 21.9185 149.353 21.096 149.041 20.14C148.752 19.1617 148.419 18.2725 148.041 17.4721ZM142.405 19.2396C143.428 19.1951 144.573 19.1284 145.84 19.0395C147.107 18.9283 148.441 18.8171 149.842 18.706L149.909 21.2405C148.686 21.3961 147.496 21.5517 146.34 21.7073C145.184 21.863 144.073 21.9964 143.005 22.1075L142.405 19.2396ZM145.507 7.50092L148.508 8.63477C147.952 9.56852 147.396 10.5245 146.84 11.5027C146.307 12.481 145.818 13.3035 145.373 13.9705L143.239 13.0034C143.506 12.4921 143.772 11.9251 144.039 11.3026C144.328 10.6579 144.595 10.0021 144.84 9.33508C145.106 8.66812 145.329 8.05673 145.507 7.50092ZM148.308 11.1025L151.042 12.4031C150.442 13.3369 149.797 14.3151 149.108 15.3378C148.441 16.3605 147.763 17.3387 147.074 18.2725C146.407 19.2062 145.773 20.0288 145.173 20.7402L143.072 19.573C143.672 18.8394 144.295 17.9834 144.94 17.0052C145.584 16.0048 146.207 14.9932 146.807 13.9705C147.407 12.9256 147.908 11.9696 148.308 11.1025ZM130.166 13.6037L131.634 11.4027C132.323 11.8918 133.034 12.4698 133.768 13.1368C134.524 13.8038 135.091 14.404 135.469 14.9376L133.901 17.4054C133.546 16.8496 133.001 16.216 132.267 15.5045C131.534 14.7709 130.833 14.1373 130.166 13.6037ZM135.835 17.8389L138.07 17.1053C138.448 17.9056 138.781 18.7838 139.07 19.7398C139.359 20.6735 139.537 21.4628 139.604 22.1075L137.203 23.0413C137.136 22.3521 136.969 21.5184 136.703 20.5401C136.458 19.5619 136.169 18.6615 135.835 17.8389ZM130.4 19.7731C131.4 19.7064 132.545 19.6286 133.835 19.5397C135.146 19.4285 136.502 19.3174 137.903 19.2062L137.97 21.9408C136.747 22.0964 135.535 22.2409 134.335 22.3743C133.157 22.5077 132.023 22.63 130.933 22.7411L130.4 19.7731ZM133.835 7.50092L136.803 8.66812C136.269 9.60187 135.724 10.569 135.169 11.5694C134.635 12.5476 134.146 13.3814 133.701 14.0706L131.567 13.1368C131.834 12.6255 132.112 12.0474 132.401 11.4027C132.69 10.7357 132.956 10.0576 133.201 9.36843C133.468 8.67923 133.679 8.05673 133.835 7.50092ZM136.636 11.1025L139.404 12.4031C138.781 13.3814 138.114 14.4152 137.403 15.5045C136.691 16.5717 135.98 17.6055 135.269 18.6059C134.557 19.5842 133.879 20.4512 133.234 21.2071L131.167 20.0733C131.789 19.2729 132.434 18.3503 133.101 17.3054C133.768 16.2604 134.413 15.1933 135.035 14.1039C135.68 13.0145 136.213 12.0141 136.636 11.1025ZM120.762 14.2373H130.967V17.8723H120.762V14.2373ZM124.364 7.30083H127.932V38.615H124.364V7.30083ZM124.297 16.7718L126.365 17.4721C126.164 18.7616 125.909 20.1177 125.598 21.5406C125.286 22.9412 124.931 24.3196 124.53 25.6758C124.13 27.032 123.686 28.2992 123.196 29.4775C122.73 30.6558 122.229 31.6674 121.696 32.5122C121.518 32.0231 121.251 31.4562 120.895 30.8115C120.562 30.1445 120.262 29.5887 119.995 29.144C120.462 28.4104 120.918 27.5655 121.362 26.6096C121.807 25.6313 122.218 24.5864 122.596 23.4748C122.974 22.341 123.308 21.2071 123.597 20.0733C123.886 18.9172 124.119 17.8167 124.297 16.7718ZM127.732 18.9728C127.91 19.1951 128.176 19.5953 128.532 20.1733C128.888 20.7291 129.266 21.3516 129.666 22.0408C130.088 22.7078 130.466 23.3303 130.8 23.9083C131.133 24.4641 131.367 24.8643 131.5 25.1089L129.599 27.8768C129.444 27.3877 129.221 26.8096 128.932 26.1427C128.643 25.4535 128.332 24.7532 127.999 24.0417C127.665 23.3081 127.343 22.63 127.032 22.0075C126.72 21.3627 126.476 20.8403 126.298 20.4401L127.732 18.9728ZM160.013 15.6713H178.588V18.4725H160.013V15.6713ZM173.419 13.9038L175.153 12.1363C175.731 12.4031 176.32 12.7366 176.921 13.1368C177.543 13.537 178.01 13.9149 178.321 14.2706L176.487 16.2049C176.176 15.8269 175.72 15.4267 175.12 15.0043C174.542 14.5597 173.975 14.1928 173.419 13.9038ZM174.786 19.4063L177.854 20.0399C177.032 22.9746 175.831 25.5646 174.253 27.8101C172.674 30.0333 170.796 31.8564 168.617 33.2792C168.484 33.0791 168.283 32.8235 168.017 32.5122C167.75 32.201 167.472 31.8897 167.183 31.5785C166.916 31.2672 166.672 31.0338 166.449 30.8782C168.517 29.6776 170.251 28.0991 171.652 26.1427C173.075 24.1862 174.119 21.9408 174.786 19.4063ZM159.646 28.4104C160.847 28.277 162.27 28.1102 163.915 27.9101C165.582 27.7101 167.294 27.4988 169.051 27.2765L169.151 29.9444C167.55 30.189 165.96 30.4335 164.382 30.6781C162.803 30.9004 161.336 31.1116 159.98 31.3117L159.646 28.4104ZM163.415 22.0408V24.1751H165.649V22.0408H163.415ZM160.847 19.9399H168.35V26.3094H160.847V19.9399ZM168.95 12.8367H172.252C172.319 14.9043 172.441 16.9052 172.619 18.8394C172.797 20.7736 173.03 22.5188 173.319 24.0751C173.608 25.6313 173.964 26.8875 174.386 27.8434C174.809 28.7994 175.287 29.3441 175.82 29.4775C176.02 29.5442 176.176 29.2885 176.287 28.7105C176.42 28.1102 176.532 27.321 176.621 26.3428C176.843 26.5429 177.099 26.7763 177.388 27.0431C177.677 27.2876 177.977 27.5211 178.288 27.7434C178.621 27.9435 178.888 28.1102 179.088 28.2436C178.844 30.289 178.31 31.6563 177.488 32.3455C176.665 33.0347 175.709 33.1236 174.62 32.6123C173.575 32.2788 172.708 31.5229 172.019 30.3446C171.352 29.144 170.807 27.6322 170.384 25.8092C169.984 23.9861 169.673 21.963 169.451 19.7398C169.228 17.5166 169.062 15.2155 168.95 12.8367ZM155.011 8.73481H183.59V38.7484H179.622V12.3364H158.813V38.7484H155.011V8.73481ZM157.412 33.7461H181.79V37.3477H157.412V33.7461ZM201.732 20.7736H212.704V23.9417H201.732V20.7736ZM198.697 25.9759H215.972V29.2107H198.697V25.9759ZM200.231 9.93536H205.534V12.5365H200.231V9.93536ZM199.531 14.7042L200.765 13.0034C201.321 13.2702 201.888 13.5926 202.466 13.9705C203.044 14.3262 203.488 14.6486 203.8 14.9376L202.532 16.8718C202.199 16.5383 201.743 16.1715 201.165 15.7713C200.609 15.3489 200.065 14.9932 199.531 14.7042ZM197.53 17.3387L198.964 15.8047C199.475 16.1159 200.009 16.4828 200.565 16.9052C201.121 17.3276 201.554 17.7055 201.865 18.039L200.398 19.7398C200.087 19.4063 199.653 19.0061 199.097 18.5392C198.564 18.0724 198.041 17.6722 197.53 17.3387ZM210.736 31.7119L213.771 30.1445C214.282 30.7003 214.805 31.3228 215.338 32.012C215.872 32.7012 216.372 33.3793 216.839 34.0462C217.306 34.7132 217.661 35.3246 217.906 35.8804L214.671 37.6145C214.449 37.0587 214.126 36.4362 213.704 35.747C213.282 35.08 212.804 34.3908 212.27 33.6794C211.759 32.9458 211.247 32.2899 210.736 31.7119ZM204.433 9.93536H205.067L205.667 9.80196L207.801 10.569C207.334 12.9034 206.645 15.0043 205.734 16.8718C204.822 18.7171 203.744 20.3289 202.499 21.7073C201.254 23.0857 199.853 24.2307 198.297 25.1422C198.075 24.742 197.752 24.2752 197.33 23.7416C196.93 23.208 196.552 22.7856 196.196 22.4744C197.552 21.7852 198.775 20.8403 199.864 19.6397C200.976 18.4392 201.932 17.0608 202.732 15.5045C203.533 13.926 204.1 12.2475 204.433 10.4689V9.93536ZM210.736 9.66857H215.705V12.5032H210.736V9.66857ZM200.431 7.43423L203.499 8.06785C202.855 10.1799 201.976 12.1363 200.865 13.9372C199.775 15.738 198.553 17.2387 197.197 18.4392C197.019 18.2613 196.785 18.039 196.496 17.7722C196.207 17.5054 195.907 17.2498 195.596 17.0052C195.285 16.7384 195.007 16.5272 194.762 16.3716C196.074 15.3267 197.219 14.0261 198.197 12.4698C199.175 10.9136 199.92 9.23504 200.431 7.43423ZM214.438 9.66857H215.171L215.805 9.50183L217.973 10.7691C217.483 12.2586 216.85 13.7482 216.072 15.2378C215.316 16.7273 214.504 17.9723 213.637 18.9728C213.393 18.6171 213.059 18.228 212.637 17.8056C212.214 17.3609 211.836 17.0163 211.503 16.7718C211.948 16.1937 212.359 15.5379 212.737 14.8042C213.115 14.0483 213.448 13.2813 213.737 12.5032C214.026 11.7028 214.26 10.9692 214.438 10.3022V9.66857ZM205.467 27.51H209.202V34.9467C209.202 35.7693 209.102 36.4251 208.902 36.9142C208.724 37.4033 208.346 37.7813 207.768 38.0481C207.212 38.3148 206.556 38.4816 205.8 38.5483C205.067 38.615 204.189 38.6483 203.166 38.6483C203.099 38.137 202.944 37.5589 202.699 36.9142C202.454 36.2917 202.21 35.747 201.965 35.2801C202.588 35.3024 203.188 35.3135 203.766 35.3135C204.366 35.3135 204.756 35.3135 204.933 35.3135C205.133 35.2913 205.267 35.2579 205.334 35.2134C205.422 35.1467 205.467 35.0356 205.467 34.88V27.51ZM199.598 30.3112L203.066 31.2116C202.577 32.4122 201.954 33.6016 201.198 34.7799C200.442 35.936 199.698 36.9031 198.964 37.6812C198.719 37.5034 198.408 37.2922 198.03 37.0476C197.675 36.8031 197.308 36.5696 196.93 36.3473C196.552 36.125 196.218 35.9471 195.929 35.8137C196.685 35.1023 197.386 34.2575 198.03 33.2792C198.697 32.301 199.22 31.3117 199.598 30.3112ZM209.435 7.9011C209.902 10.0354 210.536 12.0252 211.336 13.8705C212.137 15.6935 213.148 17.3054 214.371 18.706C215.616 20.1066 217.083 21.2071 218.773 22.0075C218.373 22.3187 217.939 22.7745 217.472 23.3748C217.028 23.9528 216.672 24.4753 216.405 24.9421C214.56 23.9417 212.981 22.6522 211.67 21.0737C210.358 19.473 209.269 17.6166 208.402 15.5045C207.535 13.3702 206.823 11.0359 206.267 8.50137L209.435 7.9011ZM188.293 8.73481H195.129V12.3364H191.761V38.6483H188.293V8.73481ZM193.995 8.73481H194.595L195.096 8.63477L197.463 9.9687C197.263 10.9692 197.019 12.0474 196.73 13.2035C196.463 14.3373 196.185 15.4601 195.896 16.5717C195.629 17.6611 195.362 18.6615 195.096 19.573C195.896 20.9292 196.418 22.2187 196.663 23.4415C196.908 24.6642 197.03 25.8092 197.03 26.8763C197.03 27.9657 196.919 28.8772 196.696 29.6109C196.496 30.3446 196.185 30.8893 195.763 31.245C195.518 31.4451 195.251 31.6007 194.962 31.7119C194.695 31.8008 194.395 31.8786 194.062 31.9453C193.839 31.9675 193.584 31.9898 193.295 32.012C193.006 32.012 192.706 32.012 192.394 32.012C192.394 31.5451 192.339 31.0115 192.228 30.4113C192.139 29.7888 191.961 29.2441 191.694 28.7772C191.894 28.7994 192.072 28.8106 192.228 28.8106C192.405 28.8106 192.561 28.8106 192.695 28.8106C192.984 28.8106 193.217 28.7105 193.395 28.5104C193.528 28.3548 193.628 28.088 193.695 27.7101C193.762 27.3321 193.795 26.8875 193.795 26.3761C193.795 25.5313 193.695 24.5531 193.495 23.4415C193.317 22.3076 192.85 21.1182 192.094 19.8732C192.294 19.1173 192.483 18.2725 192.661 17.3387C192.861 16.4049 193.039 15.4712 193.195 14.5374C193.373 13.5814 193.528 12.7033 193.662 11.9029C193.795 11.0803 193.906 10.4022 193.995 9.86866V8.73481ZM237.048 8.33463H245.318V12.0363H237.048V8.33463ZM234.047 21.4406H247.319V25.0755H234.047V21.4406ZM235.514 8.33463H239.349V12.203C239.349 13.2257 239.238 14.2929 239.015 15.4045C238.815 16.4939 238.426 17.5499 237.848 18.5726C237.27 19.573 236.414 20.4623 235.28 21.2405C235.08 20.9959 234.791 20.7069 234.413 20.3734C234.035 20.0399 233.646 19.7064 233.246 19.373C232.868 19.0395 232.535 18.7949 232.246 18.6393C233.246 18.0168 233.969 17.3387 234.413 16.605C234.88 15.8491 235.18 15.0932 235.314 14.3373C235.447 13.5592 235.514 12.8144 235.514 12.103V8.33463ZM243.217 8.33463H246.986V15.7713C246.986 16.216 247.008 16.505 247.052 16.6384C247.097 16.7495 247.208 16.8051 247.386 16.8051C247.43 16.8051 247.497 16.8051 247.586 16.8051C247.697 16.8051 247.797 16.8051 247.886 16.8051C247.997 16.8051 248.075 16.8051 248.12 16.8051C248.275 16.8051 248.386 16.7273 248.453 16.5717C248.52 16.3938 248.575 16.0492 248.62 15.5379C248.686 15.0265 248.731 14.2484 248.753 13.2035C249.109 13.5147 249.609 13.8038 250.254 14.0706C250.921 14.3373 251.499 14.5263 251.988 14.6375C251.877 16.0826 251.688 17.2053 251.421 18.0057C251.176 18.806 250.821 19.3618 250.354 19.6731C249.909 19.9843 249.32 20.14 248.586 20.14C248.409 20.14 248.197 20.14 247.953 20.14C247.708 20.14 247.475 20.14 247.253 20.14C247.03 20.14 246.83 20.14 246.652 20.14C245.785 20.14 245.096 20.0177 244.585 19.7731C244.096 19.5063 243.74 19.0617 243.517 18.4392C243.317 17.8167 243.217 16.9496 243.217 15.838V8.33463ZM238.615 24.9421C239.794 27.3432 241.55 29.4553 243.884 31.2783C246.219 33.0791 248.942 34.402 252.055 35.2468C251.766 35.5136 251.443 35.8471 251.088 36.2472C250.732 36.6697 250.398 37.1032 250.087 37.5478C249.798 37.9925 249.554 38.3927 249.353 38.7484C246.063 37.659 243.206 36.036 240.783 33.8795C238.382 31.723 236.437 29.1552 234.947 26.176L238.615 24.9421ZM246.019 21.4406H246.786L247.453 21.2738L250.054 22.3076C249.476 24.4864 248.698 26.4428 247.719 28.1769C246.741 29.911 245.585 31.4451 244.251 32.779C242.939 34.1129 241.472 35.2579 239.849 36.2139C238.248 37.1921 236.514 38.0036 234.647 38.6483C234.513 38.3148 234.313 37.9258 234.047 37.4811C233.802 37.0587 233.535 36.6363 233.246 36.2139C232.957 35.8137 232.679 35.4802 232.412 35.2134C234.058 34.7466 235.614 34.1129 237.081 33.3126C238.549 32.49 239.871 31.5229 241.05 30.4113C242.228 29.2997 243.24 28.0435 244.084 26.6429C244.951 25.2423 245.596 23.7194 246.019 22.0742V21.4406ZM223.942 8.46802H231.279V12.1697H223.942V8.46802ZM223.942 15.9714H231.412V19.6731H223.942V15.9714ZM223.909 23.5415H231.279V27.3432H223.909V23.5415ZM222.375 8.46802H225.976V20.6402C225.976 21.9741 225.943 23.4303 225.876 25.0088C225.809 26.5873 225.687 28.188 225.509 29.811C225.331 31.434 225.065 33.0124 224.709 34.5465C224.375 36.0805 223.92 37.4589 223.342 38.6817C223.119 38.4816 222.808 38.2593 222.408 38.0147C222.03 37.7702 221.63 37.5367 221.207 37.3144C220.785 37.1143 220.418 36.9587 220.107 36.8475C220.64 35.7137 221.052 34.4687 221.341 33.1125C221.652 31.7341 221.874 30.3223 222.008 28.8772C222.163 27.4321 222.263 26.0093 222.308 24.6087C222.352 23.1858 222.375 21.863 222.375 20.6402V8.46802ZM229.044 8.46802H232.746V34.2797C232.746 35.1912 232.657 35.936 232.479 36.514C232.301 37.0921 231.946 37.5478 231.412 37.8813C230.878 38.2148 230.234 38.426 229.478 38.5149C228.744 38.6039 227.833 38.6483 226.743 38.6483C226.721 38.2926 226.654 37.8702 226.543 37.3811C226.432 36.9142 226.299 36.4473 226.143 35.9805C225.987 35.5136 225.832 35.1134 225.676 34.7799C226.276 34.8021 226.843 34.8133 227.377 34.8133C227.933 34.8133 228.311 34.8133 228.511 34.8133C228.711 34.8133 228.844 34.7688 228.911 34.6799C229 34.5909 229.044 34.4353 229.044 34.213V8.46802ZM265.627 20.7736H278.867V24.3419H265.627V20.7736ZM269.196 8.23459H277.633V11.7695H269.196V8.23459ZM274.832 8.23459H279.067C279.356 9.81308 279.789 11.3582 280.367 12.87C280.946 14.3596 281.668 15.7157 282.535 16.9385C283.402 18.1613 284.414 19.1617 285.57 19.9399C285.259 20.1844 284.914 20.5179 284.536 20.9403C284.18 21.3405 283.825 21.7629 283.469 22.2076C283.135 22.63 282.857 23.0079 282.635 23.3414C281.412 22.3187 280.323 21.1071 279.367 19.7064C278.433 18.3058 277.644 16.7829 276.999 15.1377C276.377 13.4925 275.888 11.8362 275.532 10.1688H274.832V8.23459ZM277.299 20.7736H281.268C281.268 20.7736 281.268 20.8736 281.268 21.0737C281.268 21.2738 281.268 21.5073 281.268 21.774C281.268 22.0186 281.257 22.2298 281.235 22.4077C281.168 24.7865 281.101 26.8319 281.034 28.5438C280.968 30.2334 280.879 31.6452 280.768 32.779C280.679 33.8906 280.556 34.7799 280.401 35.4469C280.245 36.1139 280.045 36.5918 279.801 36.8809C279.467 37.37 279.111 37.7146 278.733 37.9147C278.355 38.137 277.911 38.2926 277.399 38.3815C276.955 38.4482 276.388 38.4927 275.699 38.5149C275.009 38.5372 274.287 38.5372 273.531 38.5149C273.509 37.9147 273.387 37.2366 273.164 36.4807C272.964 35.7248 272.708 35.0912 272.397 34.5798C272.997 34.6243 273.553 34.6576 274.065 34.6799C274.576 34.6799 274.976 34.6799 275.265 34.6799C275.51 34.6799 275.71 34.6576 275.865 34.6132C276.021 34.5465 276.177 34.4131 276.332 34.213C276.51 33.9684 276.655 33.4126 276.766 32.5456C276.899 31.6785 277.01 30.3557 277.099 28.5771C277.188 26.7763 277.255 24.4086 277.299 21.4739V20.7736ZM269.329 22.5744H273.231C273.12 24.2863 272.909 25.9204 272.597 27.4766C272.308 29.0329 271.864 30.4891 271.263 31.8453C270.663 33.1792 269.874 34.4131 268.896 35.5469C267.917 36.6808 266.672 37.7035 265.161 38.615C265.005 38.3037 264.783 37.948 264.494 37.5478C264.227 37.1699 263.938 36.8031 263.627 36.4473C263.338 36.0916 263.049 35.8026 262.76 35.5803C264.093 34.8688 265.172 34.0574 265.994 33.1458C266.817 32.2121 267.451 31.2005 267.895 30.1111C268.362 28.9995 268.696 27.8101 268.896 26.5429C269.096 25.2756 269.24 23.9528 269.329 22.5744ZM266.761 11.436L270.596 12.4031C270.13 13.7148 269.563 15.0488 268.896 16.4049C268.229 17.7611 267.484 19.0617 266.661 20.3067C265.861 21.5295 264.994 22.5966 264.06 23.5082C263.749 23.1302 263.326 22.6744 262.793 22.1409C262.282 21.6073 261.826 21.1849 261.426 20.8736C262.248 20.0955 263.004 19.1729 263.693 18.1057C264.405 17.0386 265.016 15.927 265.527 14.7709C266.061 13.5926 266.472 12.481 266.761 11.436ZM260.592 7.43423L264.36 8.63477C263.649 10.5023 262.804 12.392 261.826 14.304C260.848 16.1937 259.792 17.9946 258.658 19.7064C257.524 21.3961 256.346 22.8745 255.123 24.1418C255.012 23.8083 254.823 23.3859 254.556 22.8745C254.311 22.341 254.044 21.8074 253.755 21.2738C253.466 20.7402 253.211 20.3067 252.988 19.9732C253.989 18.9505 254.956 17.7722 255.89 16.4383C256.846 15.1044 257.724 13.6704 258.524 12.1363C259.347 10.6023 260.036 9.03495 260.592 7.43423ZM257.39 16.6717L261.192 12.87V12.9034V38.5816H257.39V16.6717ZM287.871 11.336H317.618V15.1044H287.871V11.336ZM296.875 23.3748H311.348V26.7096H296.875V23.3748ZM293.907 17.7389H310.748V21.2405H297.842V38.615H293.907V17.7389ZM309.947 17.7389H313.883V34.313C313.883 35.2913 313.76 36.0694 313.516 36.6474C313.293 37.2255 312.838 37.6701 312.148 37.9814C311.482 38.2926 310.659 38.4816 309.681 38.5483C308.702 38.615 307.535 38.6483 306.179 38.6483C306.112 38.0925 305.957 37.4367 305.712 36.6808C305.49 35.9471 305.245 35.3135 304.979 34.7799C305.557 34.8021 306.135 34.8244 306.713 34.8466C307.291 34.8688 307.802 34.88 308.247 34.88C308.714 34.88 309.036 34.88 309.214 34.88C309.503 34.8577 309.692 34.8021 309.781 34.7132C309.892 34.6243 309.947 34.4687 309.947 34.2463V17.7389ZM298.209 7.30083L302.344 8.23459C301.566 10.7246 300.588 13.2035 299.409 15.6713C298.253 18.1168 296.853 20.3956 295.207 22.5077C293.585 24.6198 291.684 26.4317 289.505 27.9435C289.305 27.6545 289.038 27.321 288.705 26.943C288.393 26.5429 288.071 26.1649 287.737 25.8092C287.426 25.4312 287.137 25.12 286.87 24.8754C288.338 23.8972 289.672 22.7411 290.872 21.4072C292.095 20.0733 293.173 18.6282 294.107 17.0719C295.063 15.4934 295.874 13.8816 296.541 12.2364C297.231 10.569 297.786 8.92379 298.209 7.30083ZM296.875 28.8772H311.348V32.2121H296.875V28.8772ZM336.259 14.9043H347.731V18.1724H336.259V14.9043ZM330.523 34.2463C331.524 34.0907 332.68 33.9017 333.992 33.6794C335.326 33.4571 336.737 33.2237 338.227 32.9791C339.716 32.7123 341.195 32.4455 342.662 32.1787L342.996 35.647C341.062 36.0916 339.116 36.5251 337.16 36.9476C335.203 37.3922 333.425 37.7813 331.824 38.1148L330.523 34.2463ZM333.992 8.80151H337.86V35.1467H333.992V8.80151ZM336.259 8.80151H349.565V24.4086H336.259V20.9737H345.597V12.2364H336.259V8.80151ZM343.196 22.1075C343.618 24.1084 344.196 25.9648 344.93 27.6767C345.664 29.3664 346.597 30.8559 347.731 32.1454C348.865 33.4349 350.255 34.4353 351.9 35.1467C351.611 35.4135 351.3 35.7359 350.966 36.1139C350.633 36.514 350.31 36.9253 349.999 37.3477C349.71 37.7924 349.476 38.1926 349.299 38.5483C347.498 37.5923 345.986 36.3473 344.763 34.8133C343.563 33.257 342.573 31.4562 341.795 29.4108C341.017 27.3655 340.383 25.12 339.894 22.6744L343.196 22.1075ZM348.031 24.642L351.166 26.8096C350.255 27.6989 349.287 28.5771 348.265 29.4442C347.264 30.289 346.342 31.0115 345.497 31.6118L343.029 29.711C343.563 29.2663 344.13 28.755 344.73 28.1769C345.352 27.5989 345.953 26.9986 346.531 26.3761C347.109 25.7536 347.609 25.1756 348.031 24.642ZM321.853 8.73481H330.157V12.3364H325.588V38.6483H321.853V8.73481ZM329.056 8.73481H329.756L330.323 8.60142L333.058 10.1688C332.747 11.147 332.413 12.1808 332.057 13.2702C331.702 14.3596 331.346 15.4378 330.99 16.505C330.635 17.5721 330.279 18.5392 329.923 19.4063C331.013 20.6958 331.713 21.9185 332.024 23.0746C332.358 24.2085 332.524 25.2645 332.524 26.2427C332.524 27.3543 332.402 28.2659 332.158 28.9773C331.913 29.6887 331.513 30.2445 330.957 30.6447C330.69 30.8448 330.379 31.0004 330.023 31.1116C329.69 31.2228 329.345 31.3117 328.989 31.3784C328.678 31.4228 328.311 31.4451 327.889 31.4451C327.489 31.4451 327.077 31.4451 326.655 31.4451C326.633 30.9337 326.544 30.3335 326.388 29.6443C326.255 28.9551 326.055 28.3659 325.788 27.8768C326.099 27.899 326.377 27.9101 326.622 27.9101C326.888 27.9101 327.122 27.9101 327.322 27.9101C327.5 27.9101 327.667 27.8879 327.822 27.8434C328 27.7767 328.167 27.6989 328.322 27.61C328.523 27.4544 328.667 27.2209 328.756 26.9097C328.867 26.5762 328.912 26.176 328.889 25.7091C328.889 24.931 328.723 24.0417 328.389 23.0413C328.078 22.0186 327.422 20.9514 326.422 19.8398C326.666 19.0839 326.911 18.2502 327.155 17.3387C327.422 16.4272 327.667 15.5157 327.889 14.6041C328.133 13.6704 328.356 12.8033 328.556 12.003C328.778 11.1804 328.945 10.5023 329.056 9.9687V8.73481ZM366.106 19.5063L370.875 20.6735C370.341 21.963 369.752 23.2858 369.108 24.642C368.485 25.9982 367.84 27.3321 367.173 28.6438C366.506 29.9555 365.839 31.2116 365.172 32.4122C364.528 33.5905 363.894 34.6576 363.272 35.6136L359.537 34.4464C360.137 33.4237 360.748 32.301 361.371 31.0782C361.993 29.8332 362.594 28.5549 363.172 27.2432C363.772 25.9092 364.317 24.5864 364.806 23.2747C365.317 21.9408 365.75 20.6847 366.106 19.5063ZM355.701 33.2125C357.258 33.1458 359.014 33.0791 360.971 33.0124C362.927 32.9235 364.995 32.8346 367.173 32.7457C369.352 32.6345 371.564 32.5233 373.81 32.4122C376.077 32.301 378.312 32.1899 380.513 32.0787L380.379 36.0138C377.534 36.1917 374.655 36.3695 371.742 36.5474C368.83 36.7252 366.04 36.8809 363.372 37.0143C360.726 37.1699 358.336 37.3144 356.202 37.4478L355.701 33.2125ZM372.576 26.843L376.444 25.0755C377.422 26.2761 378.401 27.5655 379.379 28.9439C380.357 30.3223 381.257 31.6785 382.08 33.0124C382.925 34.3242 383.614 35.5247 384.148 36.6141L379.979 38.8151C379.534 37.7257 378.901 36.4918 378.078 35.1134C377.256 33.7128 376.366 32.2899 375.41 30.8448C374.454 29.3997 373.51 28.0658 372.576 26.843ZM362.571 8.06785L367.14 9.33508C366.429 11.0914 365.573 12.8144 364.572 14.5041C363.594 16.1937 362.549 17.7722 361.437 19.2396C360.326 20.6847 359.203 21.9408 358.069 23.0079C357.802 22.6967 357.424 22.3632 356.935 22.0075C356.469 21.6295 355.979 21.2627 355.468 20.907C354.979 20.529 354.557 20.2289 354.201 20.0066C355.357 19.095 356.457 18.0057 357.502 16.7384C358.569 15.4712 359.537 14.0928 360.404 12.6032C361.271 11.1137 361.993 9.60187 362.571 8.06785ZM376.011 8.13454C376.5 9.11276 377.078 10.1243 377.745 11.1692C378.434 12.2142 379.179 13.248 379.979 14.2706C380.802 15.2711 381.624 16.2271 382.447 17.1386C383.27 18.0279 384.059 18.8283 384.815 19.5397C384.459 19.8065 384.07 20.1511 383.647 20.5735C383.225 20.9737 382.814 21.3961 382.414 21.8407C382.013 22.2631 381.691 22.6633 381.446 23.0413C380.646 22.1965 379.824 21.2516 378.979 20.2067C378.134 19.1395 377.289 18.0279 376.444 16.8718C375.622 15.6935 374.821 14.5041 374.043 13.3035C373.287 12.103 372.598 10.9247 371.976 9.76861L376.011 8.13454ZM388.716 9.33508H413.561V13.1368H388.716V9.33508ZM389.05 15.5045H408.792V19.0061H389.05V15.5045ZM412.127 9.33508H416.262V33.5794C416.262 34.7132 416.129 35.6025 415.862 36.2472C415.617 36.9142 415.139 37.4256 414.428 37.7813C413.739 38.137 412.85 38.3593 411.76 38.4482C410.671 38.5372 409.37 38.5705 407.858 38.5483C407.814 38.1481 407.725 37.6812 407.592 37.1477C407.458 36.6363 407.303 36.1139 407.125 35.5803C406.947 35.0467 406.758 34.5909 406.558 34.213C407.203 34.2575 407.847 34.2908 408.492 34.313C409.137 34.313 409.715 34.313 410.226 34.313C410.737 34.2908 411.104 34.2797 411.327 34.2797C411.638 34.2797 411.849 34.2241 411.96 34.1129C412.071 34.0018 412.127 33.7906 412.127 33.4793V9.33508ZM390.751 21.4739H394.652V35.2468H390.751V21.4739ZM394.219 21.4739H407.025V32.8124H394.219V29.3775H403.09V24.9088H394.219V21.4739Z" fill="black"/>
<path d="M89.7414 61.1362V49.8635H96.7318V51.3276H91.4422V54.7623H96.2309V56.2209H91.4422V61.1362H89.7414ZM101.632 61.3069C100.839 61.3069 100.148 61.1252 99.5569 60.7619C98.9661 60.3987 98.5074 59.8904 98.1808 59.2373C97.8542 58.5841 97.6909 57.8208 97.6909 56.9475C97.6909 56.0705 97.8542 55.3035 98.1808 54.6467C98.5074 53.9899 98.9661 53.4798 99.5569 53.1165C100.148 52.7532 100.839 52.5716 101.632 52.5716C102.425 52.5716 103.116 52.7532 103.707 53.1165C104.298 53.4798 104.757 53.9899 105.083 54.6467C105.41 55.3035 105.573 56.0705 105.573 56.9475C105.573 57.8208 105.41 58.5841 105.083 59.2373C104.757 59.8904 104.298 60.3987 103.707 60.7619C103.116 61.1252 102.425 61.3069 101.632 61.3069ZM101.637 59.9253C102.151 59.9253 102.577 59.7895 102.914 59.518C103.252 59.2464 103.502 58.885 103.663 58.4336C103.828 57.9823 103.911 57.4851 103.911 56.942C103.911 56.4026 103.828 55.9072 103.663 55.4558C103.502 55.0008 103.252 54.6357 102.914 54.3605C102.577 54.0853 102.151 53.9477 101.637 53.9477C101.12 53.9477 100.691 54.0853 100.349 54.3605C100.012 54.6357 99.7605 55.0008 99.5954 55.4558C99.4339 55.9072 99.3532 56.4026 99.3532 56.942C99.3532 57.4851 99.4339 57.9823 99.5954 58.4336C99.7605 58.885 100.012 59.2464 100.349 59.518C100.691 59.7895 101.12 59.9253 101.637 59.9253ZM109.056 56.1163V61.1362H107.41V52.6817H108.99V54.0578H109.094C109.289 53.6101 109.593 53.2505 110.008 52.9789C110.426 52.7074 110.953 52.5716 111.588 52.5716C112.164 52.5716 112.668 52.6927 113.101 52.9349C113.534 53.1734 113.87 53.5293 114.109 54.0027C114.347 54.4761 114.467 55.0614 114.467 55.7586V61.1362H112.821V55.9567C112.821 55.3439 112.661 54.865 112.342 54.5201C112.023 54.1715 111.584 53.9972 111.026 53.9972C110.645 53.9972 110.305 54.0798 110.008 54.2449C109.715 54.41 109.482 54.6522 109.309 54.9715C109.14 55.287 109.056 55.6687 109.056 56.1163ZM120.218 64.4828C119.547 64.4828 118.969 64.3948 118.485 64.2186C118.004 64.0425 117.611 63.8095 117.307 63.5196C117.002 63.2297 116.775 62.9123 116.624 62.5673L118.039 61.9839C118.138 62.1453 118.27 62.316 118.435 62.4958C118.604 62.6793 118.831 62.8352 119.118 62.9636C119.408 63.0921 119.78 63.1563 120.235 63.1563C120.859 63.1563 121.374 63.004 121.782 62.6994C122.189 62.3985 122.393 61.9178 122.393 61.2573V59.595H122.288C122.189 59.7748 122.046 59.9748 121.859 60.195C121.675 60.4152 121.422 60.606 121.099 60.7674C120.776 60.9289 120.356 61.0096 119.839 61.0096C119.171 61.0096 118.569 60.8537 118.033 60.5418C117.501 60.2262 117.079 59.762 116.767 59.1492C116.459 58.5327 116.305 57.775 116.305 56.8759C116.305 55.9769 116.457 55.2063 116.762 54.5641C117.07 53.922 117.492 53.4303 118.028 53.089C118.564 52.7441 119.171 52.5716 119.85 52.5716C120.374 52.5716 120.798 52.6597 121.121 52.8358C121.444 53.0083 121.695 53.2101 121.875 53.4413C122.059 53.6725 122.2 53.8761 122.299 54.0522H122.42V52.6817H124.033V61.3234C124.033 62.0499 123.864 62.6462 123.527 63.1123C123.189 63.5783 122.732 63.9232 122.156 64.1471C121.584 64.3709 120.938 64.4828 120.218 64.4828ZM120.202 59.6446C120.675 59.6446 121.075 59.5345 121.402 59.3143C121.732 59.0905 121.982 58.7712 122.15 58.3566C122.323 57.9383 122.409 57.4374 122.409 56.8539C122.409 56.2851 122.325 55.7843 122.156 55.3513C121.987 54.9182 121.739 54.5807 121.413 54.3385C121.086 54.0926 120.683 53.9697 120.202 53.9697C119.707 53.9697 119.294 54.0981 118.964 54.355C118.633 54.6082 118.384 54.9531 118.215 55.3898C118.05 55.8265 117.967 56.3145 117.967 56.8539C117.967 57.408 118.052 57.8942 118.22 58.3125C118.389 58.7309 118.639 59.0575 118.969 59.2923C119.303 59.5272 119.714 59.6446 120.202 59.6446ZM127.28 64.3067C127.035 64.3067 126.811 64.2865 126.609 64.2461C126.407 64.2094 126.257 64.1691 126.158 64.125L126.554 62.7765C126.855 62.8572 127.123 62.8921 127.358 62.8811C127.592 62.8701 127.8 62.782 127.979 62.6169C128.163 62.4517 128.324 62.182 128.464 61.8078L128.668 61.2463L125.574 52.6817H127.335L129.477 59.2428H129.565L131.706 52.6817H133.473L129.989 62.2646C129.827 62.7049 129.622 63.0774 129.372 63.382C129.123 63.6902 128.825 63.9214 128.48 64.0755C128.135 64.2296 127.735 64.3067 127.28 64.3067ZM140.375 57.63V52.6817H142.026V61.1362H140.408V59.6721H140.32C140.126 60.1234 139.814 60.4996 139.384 60.8005C138.959 61.0977 138.428 61.2463 137.794 61.2463C137.251 61.2463 136.77 61.1271 136.351 60.8885C135.937 60.6464 135.61 60.2886 135.372 59.8152C135.137 59.3418 135.019 58.7566 135.019 58.0593V52.6817H136.665V57.8612C136.665 58.4373 136.825 58.896 137.144 59.2373C137.463 59.5785 137.878 59.7492 138.388 59.7492C138.696 59.7492 139.003 59.6721 139.307 59.518C139.616 59.3639 139.871 59.1308 140.072 58.8189C140.278 58.507 140.379 58.1107 140.375 57.63ZM146.698 61.3234C146.162 61.3234 145.678 61.2243 145.245 61.0261C144.812 60.8243 144.469 60.5326 144.216 60.151C143.966 59.7693 143.841 59.3015 143.841 58.7474C143.841 58.2703 143.933 57.8777 144.117 57.5695C144.3 57.2612 144.548 57.0172 144.86 56.8374C145.172 56.6576 145.52 56.5218 145.905 56.4301C146.291 56.3383 146.683 56.2686 147.083 56.2209C147.59 56.1622 148.001 56.1145 148.316 56.0778C148.632 56.0374 148.861 55.9732 149.004 55.8852C149.148 55.7971 149.219 55.654 149.219 55.4558V55.4173C149.219 54.9366 149.083 54.5641 148.812 54.2999C148.544 54.0357 148.144 53.9036 147.612 53.9036C147.058 53.9036 146.621 54.0266 146.302 54.2724C145.986 54.5146 145.768 54.7843 145.647 55.0815L144.1 54.7293C144.284 54.2155 144.551 53.8009 144.904 53.4853C145.26 53.1661 145.669 52.9349 146.131 52.7918C146.594 52.645 147.08 52.5716 147.59 52.5716C147.927 52.5716 148.285 52.612 148.663 52.6927C149.045 52.7698 149.401 52.9129 149.731 53.122C150.065 53.3312 150.338 53.6303 150.551 54.0192C150.764 54.4045 150.87 54.9054 150.87 55.5219V61.1362H149.263V59.9803H149.197C149.091 60.1932 148.931 60.4023 148.718 60.6078C148.505 60.8133 148.232 60.9839 147.898 61.1197C147.564 61.2555 147.164 61.3234 146.698 61.3234ZM147.056 60.0024C147.511 60.0024 147.9 59.9124 148.223 59.7326C148.549 59.5528 148.797 59.318 148.966 59.0281C149.138 58.7345 149.225 58.4208 149.225 58.0869V56.997C149.166 57.0557 149.052 57.1108 148.883 57.1622C148.718 57.2099 148.529 57.2521 148.316 57.2888C148.104 57.3218 147.896 57.353 147.694 57.3823C147.493 57.408 147.324 57.43 147.188 57.4484C146.869 57.4887 146.577 57.5566 146.313 57.652C146.052 57.7474 145.843 57.885 145.685 58.0649C145.531 58.241 145.454 58.4758 145.454 58.7694C145.454 59.1767 145.605 59.485 145.905 59.6941C146.206 59.8996 146.59 60.0024 147.056 60.0024ZM154.708 56.1163V61.1362H153.062V52.6817H154.642V54.0578H154.747C154.941 53.6101 155.246 53.2505 155.66 52.9789C156.079 52.7074 156.605 52.5716 157.24 52.5716C157.816 52.5716 158.321 52.6927 158.754 52.9349C159.187 53.1734 159.523 53.5293 159.761 54.0027C160 54.4761 160.119 55.0614 160.119 55.7586V61.1362H158.473V55.9567C158.473 55.3439 158.313 54.865 157.994 54.5201C157.675 54.1715 157.236 53.9972 156.679 53.9972C156.297 53.9972 155.958 54.0798 155.66 54.2449C155.367 54.41 155.134 54.6522 154.961 54.9715C154.793 55.287 154.708 55.6687 154.708 56.1163ZM166.56 49.8635H168.624L172.213 58.6263H172.345L175.934 49.8635H177.998V61.1362H176.38V52.9789H176.275L172.951 61.1197H171.608L168.283 52.9734H168.178V61.1362H166.56V49.8635ZM183.983 61.3069C183.15 61.3069 182.432 61.1289 181.83 60.7729C181.232 60.4133 180.77 59.9088 180.443 59.2593C180.12 58.6061 179.959 57.841 179.959 56.964C179.959 56.098 180.12 55.3347 180.443 54.6742C180.77 54.0137 181.225 53.4982 181.808 53.1275C182.396 52.7569 183.082 52.5716 183.867 52.5716C184.344 52.5716 184.806 52.6505 185.254 52.8083C185.702 52.9661 186.104 53.2138 186.46 53.5514C186.815 53.889 187.096 54.3275 187.302 54.8669C187.507 55.4026 187.61 56.054 187.61 56.8209V57.4043H180.889V56.1714H185.997C185.997 55.7384 185.909 55.3549 185.733 55.021C185.557 54.6834 185.309 54.4174 184.99 54.2229C184.674 54.0284 184.304 53.9312 183.878 53.9312C183.416 53.9312 183.012 54.0449 182.667 54.2724C182.326 54.4963 182.062 54.7898 181.874 55.1531C181.691 55.5127 181.599 55.9035 181.599 56.3255V57.2888C181.599 57.8539 181.698 58.3346 181.896 58.7309C182.098 59.1272 182.379 59.4299 182.739 59.6391C183.098 59.8446 183.518 59.9473 183.999 59.9473C184.311 59.9473 184.595 59.9033 184.852 59.8152C185.109 59.7235 185.331 59.5877 185.518 59.4079C185.705 59.2281 185.849 59.0061 185.948 58.7419L187.505 59.0226C187.381 59.4813 187.157 59.8831 186.834 60.228C186.515 60.5693 186.113 60.8353 185.628 61.0261C185.148 61.2133 184.599 61.3069 183.983 61.3069ZM192.997 61.3069C192.179 61.3069 191.474 61.1216 190.884 60.7509C190.296 60.3766 189.845 59.8611 189.53 59.2042C189.214 58.5474 189.056 57.7951 189.056 56.9475C189.056 56.0888 189.218 55.3311 189.541 54.6742C189.863 54.0137 190.318 53.4982 190.906 53.1275C191.493 52.7569 192.184 52.5716 192.981 52.5716C193.623 52.5716 194.195 52.6909 194.698 52.9294C195.201 53.1642 195.606 53.4945 195.914 53.9201C196.226 54.3458 196.412 54.843 196.47 55.4118H194.869C194.781 55.0155 194.579 54.6742 194.263 54.388C193.951 54.1018 193.533 53.9587 193.008 53.9587C192.55 53.9587 192.148 54.0798 191.803 54.322C191.462 54.5605 191.195 54.9017 191.005 55.3457C190.814 55.7861 190.718 56.3072 190.718 56.909C190.718 57.5254 190.812 58.0575 190.999 58.5052C191.186 58.9529 191.451 59.2996 191.792 59.5455C192.137 59.7914 192.542 59.9143 193.008 59.9143C193.32 59.9143 193.603 59.8574 193.856 59.7437C194.113 59.6262 194.327 59.4593 194.5 59.2428C194.676 59.0263 194.799 58.7657 194.869 58.4612H196.47C196.412 59.0079 196.234 59.496 195.936 59.9253C195.639 60.3546 195.241 60.6922 194.742 60.9381C194.247 61.1839 193.665 61.3069 192.997 61.3069ZM199.876 56.1163V61.1362H198.23V49.8635H199.854V54.0578H199.959C200.157 53.6027 200.46 53.2413 200.867 52.9734C201.274 52.7055 201.806 52.5716 202.463 52.5716C203.043 52.5716 203.549 52.6909 203.982 52.9294C204.419 53.1679 204.757 53.5238 204.995 53.9972C205.237 54.4669 205.358 55.054 205.358 55.7586V61.1362H203.713V55.9567C203.713 55.3366 203.553 54.8559 203.234 54.5146C202.915 54.1697 202.47 53.9972 201.902 53.9972C201.513 53.9972 201.164 54.0798 200.856 54.2449C200.551 54.41 200.311 54.6522 200.135 54.9715C199.962 55.287 199.876 55.6687 199.876 56.1163ZM210.015 61.3234C209.479 61.3234 208.995 61.2243 208.562 61.0261C208.129 60.8243 207.786 60.5326 207.533 60.151C207.283 59.7693 207.158 59.3015 207.158 58.7474C207.158 58.2703 207.25 57.8777 207.434 57.5695C207.617 57.2612 207.865 57.0172 208.177 56.8374C208.488 56.6576 208.837 56.5218 209.222 56.4301C209.608 56.3383 210 56.2686 210.4 56.2209C210.907 56.1622 211.318 56.1145 211.633 56.0778C211.949 56.0374 212.178 55.9732 212.321 55.8852C212.464 55.7971 212.536 55.654 212.536 55.4558V55.4173C212.536 54.9366 212.4 54.5641 212.129 54.2999C211.861 54.0357 211.461 53.9036 210.929 53.9036C210.375 53.9036 209.938 54.0266 209.619 54.2724C209.303 54.5146 209.085 54.7843 208.964 55.0815L207.417 54.7293C207.6 54.2155 207.868 53.8009 208.221 53.4853C208.577 53.1661 208.986 52.9349 209.448 52.7918C209.91 52.645 210.397 52.5716 210.907 52.5716C211.244 52.5716 211.602 52.612 211.98 52.6927C212.362 52.7698 212.718 52.9129 213.048 53.122C213.382 53.3312 213.655 53.6303 213.868 54.0192C214.081 54.4045 214.187 54.9054 214.187 55.5219V61.1362H212.58V59.9803H212.514C212.408 60.1932 212.248 60.4023 212.035 60.6078C211.822 60.8133 211.549 60.9839 211.215 61.1197C210.881 61.2555 210.481 61.3234 210.015 61.3234ZM210.373 60.0024C210.828 60.0024 211.217 59.9124 211.54 59.7326C211.866 59.5528 212.114 59.318 212.283 59.0281C212.455 58.7345 212.541 58.4208 212.541 58.0869V56.997C212.483 57.0557 212.369 57.1108 212.2 57.1622C212.035 57.2099 211.846 57.2521 211.633 57.2888C211.42 57.3218 211.213 57.353 211.011 57.3823C210.809 57.408 210.641 57.43 210.505 57.4484C210.186 57.4887 209.894 57.5566 209.63 57.652C209.369 57.7474 209.16 57.885 209.002 58.0649C208.848 58.241 208.771 58.4758 208.771 58.7694C208.771 59.1767 208.921 59.485 209.222 59.6941C209.523 59.8996 209.907 60.0024 210.373 60.0024ZM220.326 52.6817V54.0027H215.708V52.6817H220.326ZM216.946 50.6561H218.592V58.6538C218.592 58.9731 218.64 59.2134 218.735 59.3749C218.831 59.5327 218.953 59.6409 219.104 59.6996C219.258 59.7547 219.425 59.7822 219.605 59.7822C219.737 59.7822 219.852 59.773 219.952 59.7547C220.051 59.7363 220.128 59.7216 220.183 59.7106L220.48 61.0702C220.385 61.1069 220.249 61.1436 220.073 61.1803C219.897 61.2206 219.676 61.2426 219.412 61.2463C218.979 61.2537 218.576 61.1766 218.201 61.0151C217.827 60.8537 217.524 60.6042 217.293 60.2666C217.062 59.929 216.946 59.5051 216.946 58.9951V50.6561ZM222.146 61.1362V52.6817H223.737V54.0247H223.825C223.979 53.5697 224.251 53.2119 224.64 52.9514C225.032 52.6872 225.476 52.5551 225.972 52.5551C226.075 52.5551 226.196 52.5588 226.335 52.5661C226.478 52.5734 226.59 52.5826 226.671 52.5936V54.1678C226.605 54.1495 226.487 54.1293 226.319 54.1073C226.15 54.0816 225.981 54.0688 225.812 54.0688C225.423 54.0688 225.076 54.1513 224.772 54.3165C224.471 54.4779 224.233 54.7036 224.056 54.9935C223.88 55.2797 223.792 55.6063 223.792 55.9732V61.1362H222.146ZM231.354 61.3069C230.561 61.3069 229.869 61.1252 229.279 60.7619C228.688 60.3987 228.229 59.8904 227.902 59.2373C227.576 58.5841 227.413 57.8208 227.413 56.9475C227.413 56.0705 227.576 55.3035 227.902 54.6467C228.229 53.9899 228.688 53.4798 229.279 53.1165C229.869 52.7532 230.561 52.5716 231.354 52.5716C232.146 52.5716 232.838 52.7532 233.429 53.1165C234.02 53.4798 234.478 53.9899 234.805 54.6467C235.131 55.3035 235.295 56.0705 235.295 56.9475C235.295 57.8208 235.131 58.5841 234.805 59.2373C234.478 59.8904 234.02 60.3987 233.429 60.7619C232.838 61.1252 232.146 61.3069 231.354 61.3069ZM231.359 59.9253C231.873 59.9253 232.299 59.7895 232.636 59.518C232.974 59.2464 233.223 58.885 233.385 58.4336C233.55 57.9823 233.632 57.4851 233.632 56.942C233.632 56.4026 233.55 55.9072 233.385 55.4558C233.223 55.0008 232.974 54.6357 232.636 54.3605C232.299 54.0853 231.873 53.9477 231.359 53.9477C230.842 53.9477 230.412 54.0853 230.071 54.3605C229.734 54.6357 229.482 55.0008 229.317 55.4558C229.156 55.9072 229.075 56.4026 229.075 56.942C229.075 57.4851 229.156 57.9823 229.317 58.4336C229.482 58.885 229.734 59.2464 230.071 59.518C230.412 59.7895 230.842 59.9253 231.359 59.9253ZM238.778 56.1163V61.1362H237.132V52.6817H238.711V54.0578H238.816C239.011 53.6101 239.315 53.2505 239.73 52.9789C240.148 52.7074 240.675 52.5716 241.309 52.5716C241.886 52.5716 242.39 52.6927 242.823 52.9349C243.256 53.1734 243.592 53.5293 243.83 54.0027C244.069 54.4761 244.188 55.0614 244.188 55.7586V61.1362H242.542V55.9567C242.542 55.3439 242.383 54.865 242.064 54.5201C241.744 54.1715 241.306 53.9972 240.748 53.9972C240.366 53.9972 240.027 54.0798 239.73 54.2449C239.436 54.41 239.203 54.6522 239.031 54.9715C238.862 55.287 238.778 55.6687 238.778 56.1163ZM246.395 61.1362V52.6817H248.041V61.1362H246.395ZM247.227 51.3772C246.94 51.3772 246.694 51.2818 246.489 51.091C246.287 50.8965 246.186 50.6653 246.186 50.3974C246.186 50.1259 246.287 49.8947 246.489 49.7039C246.694 49.5094 246.94 49.4122 247.227 49.4122C247.513 49.4122 247.757 49.5094 247.959 49.7039C248.164 49.8947 248.267 50.1259 248.267 50.3974C248.267 50.6653 248.164 50.8965 247.959 51.091C247.757 51.2818 247.513 51.3772 247.227 51.3772ZM253.817 61.3069C252.998 61.3069 252.294 61.1216 251.703 60.7509C251.116 60.3766 250.664 59.8611 250.349 59.2042C250.033 58.5474 249.875 57.7951 249.875 56.9475C249.875 56.0888 250.037 55.3311 250.36 54.6742C250.683 54.0137 251.138 53.4982 251.725 53.1275C252.312 52.7569 253.004 52.5716 253.8 52.5716C254.442 52.5716 255.015 52.6909 255.517 52.9294C256.02 53.1642 256.426 53.4945 256.734 53.9201C257.046 54.3458 257.231 54.843 257.29 55.4118H255.688C255.6 55.0155 255.398 54.6742 255.083 54.388C254.771 54.1018 254.352 53.9587 253.828 53.9587C253.369 53.9587 252.967 54.0798 252.622 54.322C252.281 54.5605 252.015 54.9017 251.824 55.3457C251.633 55.7861 251.538 56.3072 251.538 56.909C251.538 57.5254 251.631 58.0575 251.818 58.5052C252.006 58.9529 252.27 59.2996 252.611 59.5455C252.956 59.7914 253.362 59.9143 253.828 59.9143C254.139 59.9143 254.422 59.8574 254.675 59.7437C254.932 59.6262 255.147 59.4593 255.319 59.2428C255.495 59.0263 255.618 58.7657 255.688 58.4612H257.29C257.231 59.0079 257.053 59.496 256.756 59.9253C256.459 60.3546 256.06 60.6922 255.561 60.9381C255.066 61.1839 254.484 61.3069 253.817 61.3069ZM265.385 54.7458L263.893 55.01C263.831 54.8192 263.732 54.6375 263.596 54.4651C263.464 54.2926 263.284 54.1513 263.057 54.0412C262.829 53.9312 262.545 53.8761 262.204 53.8761C261.738 53.8761 261.349 53.9807 261.037 54.1899C260.725 54.3953 260.569 54.6614 260.569 54.988C260.569 55.2705 260.673 55.498 260.883 55.6705C261.092 55.843 261.429 55.9842 261.895 56.0943L263.238 56.4026C264.016 56.5824 264.596 56.8594 264.978 57.2337C265.359 57.608 265.55 58.0942 265.55 58.6923C265.55 59.1987 265.403 59.6501 265.11 60.0464C264.82 60.439 264.415 60.7473 263.893 60.9711C263.376 61.1949 262.776 61.3069 262.094 61.3069C261.147 61.3069 260.374 61.105 259.776 60.7014C259.178 60.2941 258.811 59.7161 258.675 58.9676L260.266 58.7254C260.365 59.14 260.569 59.4538 260.877 59.6666C261.185 59.8758 261.587 59.9803 262.083 59.9803C262.622 59.9803 263.053 59.8684 263.376 59.6446C263.699 59.4171 263.86 59.14 263.86 58.8134C263.86 58.5492 263.761 58.3272 263.563 58.1474C263.369 57.9676 263.07 57.8318 262.666 57.7401L261.235 57.4264C260.446 57.2466 259.863 56.9603 259.485 56.5677C259.11 56.1751 258.923 55.6778 258.923 55.076C258.923 54.577 259.063 54.1403 259.341 53.766C259.62 53.3917 260.006 53.1 260.497 52.8908C260.989 52.678 261.552 52.5716 262.187 52.5716C263.101 52.5716 263.82 52.7698 264.345 53.1661C264.87 53.5587 265.216 54.0853 265.385 54.7458ZM273.295 49.8635V61.1362H271.594V49.8635H273.295ZM277.285 56.1163V61.1362H275.64V52.6817H277.219V54.0578H277.324C277.518 53.6101 277.823 53.2505 278.238 52.9789C278.656 52.7074 279.182 52.5716 279.817 52.5716C280.393 52.5716 280.898 52.6927 281.331 52.9349C281.764 53.1734 282.1 53.5293 282.338 54.0027C282.577 54.4761 282.696 55.0614 282.696 55.7586V61.1362H281.05V55.9567C281.05 55.3439 280.891 54.865 280.571 54.5201C280.252 54.1715 279.814 53.9972 279.256 53.9972C278.874 53.9972 278.535 54.0798 278.238 54.2449C277.944 54.41 277.711 54.6522 277.539 54.9715C277.37 55.287 277.285 55.6687 277.285 56.1163ZM288.85 52.6817V54.0027H284.232V52.6817H288.85ZM285.47 50.6561H287.116V58.6538C287.116 58.9731 287.164 59.2134 287.259 59.3749C287.354 59.5327 287.477 59.6409 287.628 59.6996C287.782 59.7547 287.949 59.7822 288.129 59.7822C288.261 59.7822 288.376 59.773 288.475 59.7547C288.575 59.7363 288.652 59.7216 288.707 59.7106L289.004 61.0702C288.908 61.1069 288.773 61.1436 288.597 61.1803C288.42 61.2206 288.2 61.2426 287.936 61.2463C287.503 61.2537 287.099 61.1766 286.725 61.0151C286.351 60.8537 286.048 60.6042 285.817 60.2666C285.586 59.929 285.47 59.5051 285.47 58.9951V50.6561ZM294.223 61.3069C293.39 61.3069 292.673 61.1289 292.071 60.7729C291.473 60.4133 291.011 59.9088 290.684 59.2593C290.361 58.6061 290.2 57.841 290.2 56.964C290.2 56.098 290.361 55.3347 290.684 54.6742C291.011 54.0137 291.466 53.4982 292.049 53.1275C292.636 52.7569 293.322 52.5716 294.108 52.5716C294.585 52.5716 295.047 52.6505 295.495 52.8083C295.942 52.9661 296.344 53.2138 296.7 53.5514C297.056 53.889 297.337 54.3275 297.542 54.8669C297.748 55.4026 297.851 56.054 297.851 56.8209V57.4043H291.13V56.1714H296.238C296.238 55.7384 296.15 55.3549 295.974 55.021C295.798 54.6834 295.55 54.4174 295.231 54.2229C294.915 54.0284 294.544 53.9312 294.119 53.9312C293.656 53.9312 293.253 54.0449 292.908 54.2724C292.567 54.4963 292.302 54.7898 292.115 55.1531C291.932 55.5127 291.84 55.9035 291.84 56.3255V57.2888C291.84 57.8539 291.939 58.3346 292.137 58.7309C292.339 59.1272 292.62 59.4299 292.979 59.6391C293.339 59.8446 293.759 59.9473 294.24 59.9473C294.552 59.9473 294.836 59.9033 295.093 59.8152C295.35 59.7235 295.572 59.5877 295.759 59.4079C295.946 59.2281 296.089 59.0061 296.188 58.7419L297.746 59.0226C297.621 59.4813 297.397 59.8831 297.075 60.228C296.755 60.5693 296.353 60.8353 295.869 61.0261C295.388 61.2133 294.84 61.3069 294.223 61.3069ZM299.677 61.1362V52.6817H301.267V54.0247H301.355C301.51 53.5697 301.781 53.2119 302.17 52.9514C302.563 52.6872 303.007 52.5551 303.502 52.5551C303.605 52.5551 303.726 52.5588 303.865 52.5661C304.009 52.5734 304.12 52.5826 304.201 52.5936V54.1678C304.135 54.1495 304.018 54.1293 303.849 54.1073C303.68 54.0816 303.511 54.0688 303.343 54.0688C302.954 54.0688 302.607 54.1513 302.302 54.3165C302.001 54.4779 301.763 54.7036 301.587 54.9935C301.411 55.2797 301.322 55.6063 301.322 55.9732V61.1362H299.677ZM307.271 56.1163V61.1362H305.625V52.6817H307.205V54.0578H307.31C307.504 53.6101 307.809 53.2505 308.223 52.9789C308.642 52.7074 309.168 52.5716 309.803 52.5716C310.379 52.5716 310.884 52.6927 311.317 52.9349C311.75 53.1734 312.086 53.5293 312.324 54.0027C312.563 54.4761 312.682 55.0614 312.682 55.7586V61.1362H311.036V55.9567C311.036 55.3439 310.876 54.865 310.557 54.5201C310.238 54.1715 309.799 53.9972 309.242 53.9972C308.86 53.9972 308.521 54.0798 308.223 54.2449C307.93 54.41 307.697 54.6522 307.524 54.9715C307.356 55.287 307.271 55.6687 307.271 56.1163ZM317.349 61.3234C316.814 61.3234 316.329 61.2243 315.896 61.0261C315.463 60.8243 315.12 60.5326 314.867 60.151C314.618 59.7693 314.493 59.3015 314.493 58.7474C314.493 58.2703 314.585 57.8777 314.768 57.5695C314.951 57.2612 315.199 57.0172 315.511 56.8374C315.823 56.6576 316.172 56.5218 316.557 56.4301C316.942 56.3383 317.335 56.2686 317.735 56.2209C318.241 56.1622 318.652 56.1145 318.968 56.0778C319.283 56.0374 319.513 55.9732 319.656 55.8852C319.799 55.7971 319.87 55.654 319.87 55.4558V55.4173C319.87 54.9366 319.735 54.5641 319.463 54.2999C319.195 54.0357 318.795 53.9036 318.263 53.9036C317.709 53.9036 317.272 54.0266 316.953 54.2724C316.638 54.5146 316.419 54.7843 316.298 55.0815L314.751 54.7293C314.935 54.2155 315.203 53.8009 315.555 53.4853C315.911 53.1661 316.32 52.9349 316.783 52.7918C317.245 52.645 317.731 52.5716 318.241 52.5716C318.579 52.5716 318.937 52.612 319.314 52.6927C319.696 52.7698 320.052 52.9129 320.382 53.122C320.716 53.3312 320.99 53.6303 321.202 54.0192C321.415 54.4045 321.522 54.9054 321.522 55.5219V61.1362H319.914V59.9803H319.848C319.742 60.1932 319.582 60.4023 319.37 60.6078C319.157 60.8133 318.883 60.9839 318.549 61.1197C318.215 61.2555 317.816 61.3234 317.349 61.3234ZM317.707 60.0024C318.162 60.0024 318.551 59.9124 318.874 59.7326C319.201 59.5528 319.448 59.318 319.617 59.0281C319.79 58.7345 319.876 58.4208 319.876 58.0869V56.997C319.817 57.0557 319.703 57.1108 319.535 57.1622C319.37 57.2099 319.181 57.2521 318.968 57.2888C318.755 57.3218 318.548 57.353 318.346 57.3823C318.144 57.408 317.975 57.43 317.839 57.4484C317.52 57.4887 317.228 57.5566 316.964 57.652C316.704 57.7474 316.494 57.885 316.337 58.0649C316.183 58.241 316.106 58.4758 316.106 58.7694C316.106 59.1767 316.256 59.485 316.557 59.6941C316.858 59.8996 317.241 60.0024 317.707 60.0024ZM327.66 52.6817V54.0027H323.042V52.6817H327.66ZM324.281 50.6561H325.926V58.6538C325.926 58.9731 325.974 59.2134 326.07 59.3749C326.165 59.5327 326.288 59.6409 326.438 59.6996C326.593 59.7547 326.759 59.7822 326.939 59.7822C327.071 59.7822 327.187 59.773 327.286 59.7547C327.385 59.7363 327.462 59.7216 327.517 59.7106L327.814 61.0702C327.719 61.1069 327.583 61.1436 327.407 61.1803C327.231 61.2206 327.011 61.2426 326.747 61.2463C326.314 61.2537 325.91 61.1766 325.536 61.0151C325.161 60.8537 324.859 60.6042 324.627 60.2666C324.396 59.929 324.281 59.5051 324.281 58.9951V50.6561ZM329.481 61.1362V52.6817H331.127V61.1362H329.481ZM330.312 51.3772C330.026 51.3772 329.78 51.2818 329.574 51.091C329.373 50.8965 329.272 50.6653 329.272 50.3974C329.272 50.1259 329.373 49.8947 329.574 49.7039C329.78 49.5094 330.026 49.4122 330.312 49.4122C330.598 49.4122 330.842 49.5094 331.044 49.7039C331.25 49.8947 331.352 50.1259 331.352 50.3974C331.352 50.6653 331.25 50.8965 331.044 51.091C330.842 51.2818 330.598 51.3772 330.312 51.3772ZM336.902 61.3069C336.109 61.3069 335.418 61.1252 334.827 60.7619C334.236 60.3987 333.777 59.8904 333.451 59.2373C333.124 58.5841 332.961 57.8208 332.961 56.9475C332.961 56.0705 333.124 55.3035 333.451 54.6467C333.777 53.9899 334.236 53.4798 334.827 53.1165C335.418 52.7532 336.109 52.5716 336.902 52.5716C337.695 52.5716 338.386 52.7532 338.977 53.1165C339.568 53.4798 340.027 53.9899 340.353 54.6467C340.68 55.3035 340.843 56.0705 340.843 56.9475C340.843 57.8208 340.68 58.5841 340.353 59.2373C340.027 59.8904 339.568 60.3987 338.977 60.7619C338.386 61.1252 337.695 61.3069 336.902 61.3069ZM336.907 59.9253C337.421 59.9253 337.847 59.7895 338.184 59.518C338.522 59.2464 338.772 58.885 338.933 58.4336C339.098 57.9823 339.181 57.4851 339.181 56.942C339.181 56.4026 339.098 55.9072 338.933 55.4558C338.772 55.0008 338.522 54.6357 338.184 54.3605C337.847 54.0853 337.421 53.9477 336.907 53.9477C336.39 53.9477 335.961 54.0853 335.619 54.3605C335.282 54.6357 335.031 55.0008 334.865 55.4558C334.704 55.9072 334.623 56.4026 334.623 56.942C334.623 57.4851 334.704 57.9823 334.865 58.4336C335.031 58.885 335.282 59.2464 335.619 59.518C335.961 59.7895 336.39 59.9253 336.907 59.9253ZM344.326 56.1163V61.1362H342.68V52.6817H344.26V54.0578H344.364C344.559 53.6101 344.863 53.2505 345.278 52.9789C345.696 52.7074 346.223 52.5716 346.858 52.5716C347.434 52.5716 347.938 52.6927 348.371 52.9349C348.804 53.1734 349.14 53.5293 349.379 54.0027C349.617 54.4761 349.737 55.0614 349.737 55.7586V61.1362H348.091V55.9567C348.091 55.3439 347.931 54.865 347.612 54.5201C347.293 54.1715 346.854 53.9972 346.296 53.9972C345.915 53.9972 345.575 54.0798 345.278 54.2449C344.985 54.41 344.752 54.6522 344.579 54.9715C344.41 55.287 344.326 55.6687 344.326 56.1163ZM354.404 61.3234C353.868 61.3234 353.384 61.2243 352.951 61.0261C352.518 60.8243 352.175 60.5326 351.922 60.151C351.672 59.7693 351.547 59.3015 351.547 58.7474C351.547 58.2703 351.639 57.8777 351.823 57.5695C352.006 57.2612 352.254 57.0172 352.566 56.8374C352.878 56.6576 353.226 56.5218 353.612 56.4301C353.997 56.3383 354.389 56.2686 354.789 56.2209C355.296 56.1622 355.707 56.1145 356.022 56.0778C356.338 56.0374 356.567 55.9732 356.71 55.8852C356.854 55.7971 356.925 55.654 356.925 55.4558V55.4173C356.925 54.9366 356.789 54.5641 356.518 54.2999C356.25 54.0357 355.85 53.9036 355.318 53.9036C354.764 53.9036 354.327 54.0266 354.008 54.2724C353.692 54.5146 353.474 54.7843 353.353 55.0815L351.806 54.7293C351.99 54.2155 352.258 53.8009 352.61 53.4853C352.966 53.1661 353.375 52.9349 353.837 52.7918C354.3 52.645 354.786 52.5716 355.296 52.5716C355.633 52.5716 355.991 52.612 356.369 52.6927C356.751 52.7698 357.107 52.9129 357.437 53.122C357.771 53.3312 358.044 53.6303 358.257 54.0192C358.47 54.4045 358.576 54.9054 358.576 55.5219V61.1362H356.969V59.9803H356.903C356.797 60.1932 356.637 60.4023 356.424 60.6078C356.211 60.8133 355.938 60.9839 355.604 61.1197C355.27 61.2555 354.87 61.3234 354.404 61.3234ZM354.762 60.0024C355.217 60.0024 355.606 59.9124 355.929 59.7326C356.255 59.5528 356.503 59.318 356.672 59.0281C356.844 58.7345 356.931 58.4208 356.931 58.0869V56.997C356.872 57.0557 356.758 57.1108 356.589 57.1622C356.424 57.2099 356.235 57.2521 356.022 57.2888C355.81 57.3218 355.602 57.353 355.4 57.3823C355.199 57.408 355.03 57.43 354.894 57.4484C354.575 57.4887 354.283 57.5566 354.019 57.652C353.758 57.7474 353.549 57.885 353.391 58.0649C353.237 58.241 353.16 58.4758 353.16 58.7694C353.16 59.1767 353.311 59.485 353.612 59.6941C353.912 59.8996 354.296 60.0024 354.762 60.0024ZM362.414 49.8635V61.1362H360.768V49.8635H362.414ZM378.225 53.5293H376.508C376.442 53.1624 376.319 52.8395 376.139 52.5606C375.959 52.2817 375.739 52.045 375.479 51.8505C375.218 51.6561 374.926 51.5093 374.603 51.4102C374.284 51.3111 373.945 51.2616 373.585 51.2616C372.936 51.2616 372.354 51.4249 371.84 51.7515C371.33 52.0781 370.927 52.5569 370.629 53.1881C370.336 53.8192 370.189 54.5898 370.189 55.4999C370.189 56.4172 370.336 57.1915 370.629 57.8227C370.927 58.4538 371.332 58.9309 371.846 59.2538C372.36 59.5767 372.937 59.7381 373.58 59.7381C373.936 59.7381 374.273 59.6904 374.592 59.595C374.915 59.496 375.207 59.351 375.468 59.1602C375.728 58.9694 375.948 58.7364 376.128 58.4612C376.312 58.1823 376.438 57.863 376.508 57.5034L378.225 57.5089C378.133 58.063 377.956 58.5731 377.691 59.0391C377.431 59.5015 377.095 59.9014 376.684 60.239C376.277 60.573 375.811 60.8317 375.286 61.0151C374.761 61.1986 374.189 61.2903 373.569 61.2903C372.593 61.2903 371.723 61.0592 370.96 60.5968C370.196 60.1308 369.595 59.4648 369.154 58.5988C368.718 57.7328 368.499 56.6998 368.499 55.4999C368.499 54.2963 368.719 53.2633 369.16 52.401C369.6 51.535 370.202 50.8708 370.965 50.4084C371.728 49.9424 372.596 49.7094 373.569 49.7094C374.167 49.7094 374.725 49.7956 375.242 49.9681C375.763 50.1369 376.231 50.3864 376.646 50.7167C377.06 51.0432 377.403 51.4432 377.675 51.9166C377.946 52.3863 378.13 52.9239 378.225 53.5293ZM383.69 61.3069C382.897 61.3069 382.205 61.1252 381.614 60.7619C381.024 60.3987 380.565 59.8904 380.238 59.2373C379.912 58.5841 379.749 57.8208 379.749 56.9475C379.749 56.0705 379.912 55.3035 380.238 54.6467C380.565 53.9899 381.024 53.4798 381.614 53.1165C382.205 52.7532 382.897 52.5716 383.69 52.5716C384.482 52.5716 385.174 52.7532 385.765 53.1165C386.355 53.4798 386.814 53.9899 387.141 54.6467C387.467 55.3035 387.631 56.0705 387.631 56.9475C387.631 57.8208 387.467 58.5841 387.141 59.2373C386.814 59.8904 386.355 60.3987 385.765 60.7619C385.174 61.1252 384.482 61.3069 383.69 61.3069ZM383.695 59.9253C384.209 59.9253 384.634 59.7895 384.972 59.518C385.31 59.2464 385.559 58.885 385.721 58.4336C385.886 57.9823 385.968 57.4851 385.968 56.942C385.968 56.4026 385.886 55.9072 385.721 55.4558C385.559 55.0008 385.31 54.6357 384.972 54.3605C384.634 54.0853 384.209 53.9477 383.695 53.9477C383.178 53.9477 382.748 54.0853 382.407 54.3605C382.069 54.6357 381.818 55.0008 381.653 55.4558C381.492 55.9072 381.411 56.4026 381.411 56.942C381.411 57.4851 381.492 57.9823 381.653 58.4336C381.818 58.885 382.069 59.2464 382.407 59.518C382.748 59.7895 383.178 59.9253 383.695 59.9253ZM390.552 61.2408C390.251 61.2408 389.992 61.1344 389.776 60.9216C389.559 60.7051 389.451 60.4445 389.451 60.14C389.451 59.8391 389.559 59.5822 389.776 59.3694C389.992 59.1529 390.251 59.0446 390.552 59.0446C390.853 59.0446 391.112 59.1529 391.328 59.3694C391.545 59.5822 391.653 59.8391 391.653 60.14C391.653 60.3418 391.602 60.5271 391.499 60.6959C391.4 60.861 391.268 60.9931 391.102 61.0922C390.937 61.1913 390.754 61.2408 390.552 61.2408ZM395.998 59.595L395.916 60.195C395.861 60.6353 395.767 61.094 395.635 61.5711C395.507 62.0518 395.373 62.4976 395.233 62.9086C395.098 63.3196 394.986 63.6462 394.898 63.8884H393.731C393.778 63.6609 393.844 63.3526 393.929 62.9636C394.013 62.5783 394.096 62.1472 394.177 61.6701C394.257 61.1931 394.318 60.7069 394.358 60.2115L394.413 59.595H395.998ZM398.455 61.1362V49.8635H400.156V59.6721H405.264V61.1362H398.455ZM410.67 52.6817V54.0027H406.052V52.6817H410.67ZM407.29 50.6561H408.936V58.6538C408.936 58.9731 408.984 59.2134 409.079 59.3749C409.175 59.5327 409.298 59.6409 409.448 59.6996C409.602 59.7547 409.769 59.7822 409.949 59.7822C410.081 59.7822 410.197 59.773 410.296 59.7547C410.395 59.7363 410.472 59.7216 410.527 59.7106L410.824 61.0702C410.729 61.1069 410.593 61.1436 410.417 61.1803C410.241 61.2206 410.021 61.2426 409.756 61.2463C409.323 61.2537 408.92 61.1766 408.545 61.0151C408.171 60.8537 407.868 60.6042 407.637 60.2666C407.406 59.929 407.29 59.5051 407.29 58.9951V50.6561ZM415.565 61.3014C414.882 61.3014 414.273 61.1271 413.737 60.7785C413.205 60.4262 412.787 59.9253 412.482 59.2758C412.181 58.6226 412.031 57.8392 412.031 56.9255C412.031 56.0118 412.183 55.2302 412.488 54.5807C412.796 53.9312 413.218 53.4339 413.754 53.089C414.29 52.7441 414.897 52.5716 415.576 52.5716C416.101 52.5716 416.523 52.6597 416.842 52.8358C417.165 53.0083 417.414 53.2101 417.59 53.4413C417.77 53.6725 417.91 53.8761 418.009 54.0522H418.108V49.8635H419.754V61.1362H418.146V59.8207H418.009C417.91 60.0005 417.766 60.206 417.579 60.4372C417.396 60.6684 417.143 60.8702 416.82 61.0427C416.497 61.2151 416.078 61.3014 415.565 61.3014ZM415.928 59.8978C416.401 59.8978 416.801 59.773 417.128 59.5235C417.458 59.2703 417.708 58.9198 417.877 58.4722C418.049 58.0245 418.135 57.5034 418.135 56.909C418.135 56.3218 418.051 55.8081 417.882 55.3678C417.713 54.9274 417.466 54.5843 417.139 54.3385C416.812 54.0926 416.409 53.9697 415.928 53.9697C415.433 53.9697 415.02 54.0981 414.69 54.355C414.359 54.6118 414.11 54.9623 413.941 55.4063C413.776 55.8503 413.693 56.3512 413.693 56.909C413.693 57.4741 413.778 57.9823 413.947 58.4336C414.115 58.885 414.365 59.2428 414.695 59.507C415.029 59.7675 415.44 59.8978 415.928 59.8978ZM423.187 61.2408C422.886 61.2408 422.627 61.1344 422.411 60.9216C422.194 60.7051 422.086 60.4445 422.086 60.14C422.086 59.8391 422.194 59.5822 422.411 59.3694C422.627 59.1529 422.886 59.0446 423.187 59.0446C423.488 59.0446 423.746 59.1529 423.963 59.3694C424.179 59.5822 424.288 59.8391 424.288 60.14C424.288 60.3418 424.236 60.5271 424.134 60.6959C424.034 60.861 423.902 60.9931 423.737 61.0922C423.572 61.1913 423.389 61.2408 423.187 61.2408Z" fill="black"/>
</svg>
